<mxfile host="65bd71144e" pages="3">
    <diagram name="Employees Login" id="0783ab3e-0a74-02c8-0abd-f7b4e66b4bec">
        <mxGraphModel dx="1074" dy="903" grid="1" gridSize="10" guides="1" tooltips="1" connect="1" arrows="1" fold="1" page="1" pageScale="1" pageWidth="850" pageHeight="1100" background="none" math="0" shadow="0">
            <root>
                <mxCell id="0"/>
                <mxCell id="1" parent="0"/>
                <mxCell id="1c1d494c118603dd-1" value="Kasir Login" style="swimlane;html=1;childLayout=stackLayout;startSize=20;rounded=0;shadow=0;comic=0;labelBackgroundColor=none;strokeWidth=1;fontFamily=Verdana;fontSize=12;align=center;" parent="1" vertex="1">
                    <mxGeometry x="40" y="20" width="500" height="640" as="geometry"/>
                </mxCell>
                <mxCell id="1c1d494c118603dd-3" value="Sistem" style="swimlane;html=1;startSize=20;" parent="1c1d494c118603dd-1" vertex="1">
                    <mxGeometry y="20" width="250" height="620" as="geometry"/>
                </mxCell>
                <mxCell id="6Mff6yjk0ZhraDcIMbtA-30" value="Menampilkan Sign In Modal" style="whiteSpace=wrap;html=1;fontFamily=Verdana;rounded=1;shadow=0;comic=0;labelBackgroundColor=none;strokeWidth=1;arcSize=50;" parent="1c1d494c118603dd-3" vertex="1">
                    <mxGeometry x="50" y="110" width="150" height="30" as="geometry"/>
                </mxCell>
                <mxCell id="6Mff6yjk0ZhraDcIMbtA-42" value="Tidak" style="edgeStyle=orthogonalEdgeStyle;rounded=0;orthogonalLoop=1;jettySize=auto;html=1;" parent="1c1d494c118603dd-3" source="6Mff6yjk0ZhraDcIMbtA-37" target="6Mff6yjk0ZhraDcIMbtA-41" edge="1">
                    <mxGeometry relative="1" as="geometry"/>
                </mxCell>
                <mxCell id="6Mff6yjk0ZhraDcIMbtA-44" value="Ya" style="edgeStyle=orthogonalEdgeStyle;rounded=0;orthogonalLoop=1;jettySize=auto;html=1;entryX=0;entryY=0.5;entryDx=0;entryDy=0;" parent="1c1d494c118603dd-3" source="6Mff6yjk0ZhraDcIMbtA-37" target="6Mff6yjk0ZhraDcIMbtA-43" edge="1">
                    <mxGeometry x="-0.2453" relative="1" as="geometry">
                        <Array as="points">
                            <mxPoint x="45" y="270"/>
                            <mxPoint x="45" y="475"/>
                        </Array>
                        <mxPoint as="offset"/>
                    </mxGeometry>
                </mxCell>
                <mxCell id="6Mff6yjk0ZhraDcIMbtA-37" value="Valid?" style="rhombus;whiteSpace=wrap;html=1;" parent="1c1d494c118603dd-3" vertex="1">
                    <mxGeometry x="85" y="240" width="80" height="60" as="geometry"/>
                </mxCell>
                <mxCell id="6Mff6yjk0ZhraDcIMbtA-41" value="Menampilkan pesan error" style="whiteSpace=wrap;html=1;fontFamily=Verdana;rounded=1;shadow=0;comic=0;labelBackgroundColor=none;strokeWidth=1;arcSize=50;" parent="1c1d494c118603dd-3" vertex="1">
                    <mxGeometry x="65" y="370" width="120" height="30" as="geometry"/>
                </mxCell>
                <mxCell id="6Mff6yjk0ZhraDcIMbtA-45" value="" style="edgeStyle=orthogonalEdgeStyle;rounded=0;orthogonalLoop=1;jettySize=auto;html=1;" parent="1c1d494c118603dd-3" source="6Mff6yjk0ZhraDcIMbtA-43" target="60571a20871a0731-5" edge="1">
                    <mxGeometry relative="1" as="geometry"/>
                </mxCell>
                <mxCell id="6Mff6yjk0ZhraDcIMbtA-43" value="Menampilkan halaman kasir dan pesan berhasil login" style="whiteSpace=wrap;html=1;fontFamily=Verdana;rounded=1;shadow=0;comic=0;labelBackgroundColor=none;strokeWidth=1;arcSize=50;" parent="1c1d494c118603dd-3" vertex="1">
                    <mxGeometry x="65" y="440" width="120" height="70" as="geometry"/>
                </mxCell>
                <mxCell id="60571a20871a0731-5" value="" style="shape=mxgraph.bpmn.shape;html=1;verticalLabelPosition=bottom;labelBackgroundColor=#ffffff;verticalAlign=top;perimeter=ellipsePerimeter;outline=end;symbol=terminate;rounded=0;shadow=0;comic=0;strokeWidth=1;fontFamily=Verdana;fontSize=12;align=center;" parent="1c1d494c118603dd-3" vertex="1">
                    <mxGeometry x="105" y="550" width="40" height="40" as="geometry"/>
                </mxCell>
                <mxCell id="1c1d494c118603dd-4" value="Kasir" style="swimlane;html=1;startSize=20;" parent="1c1d494c118603dd-1" vertex="1">
                    <mxGeometry x="250" y="20" width="250" height="620" as="geometry"/>
                </mxCell>
                <mxCell id="1c1d494c118603dd-27" style="edgeStyle=orthogonalEdgeStyle;rounded=0;html=1;labelBackgroundColor=none;startArrow=none;startFill=0;startSize=5;endArrow=classicThin;endFill=1;endSize=5;jettySize=auto;orthogonalLoop=1;strokeWidth=1;fontFamily=Verdana;fontSize=12" parent="1c1d494c118603dd-4" source="60571a20871a0731-4" target="60571a20871a0731-8" edge="1">
                    <mxGeometry relative="1" as="geometry"/>
                </mxCell>
                <mxCell id="60571a20871a0731-4" value="" style="ellipse;whiteSpace=wrap;html=1;rounded=0;shadow=0;comic=0;labelBackgroundColor=none;strokeWidth=1;fillColor=#000000;fontFamily=Verdana;fontSize=12;align=center;" parent="1c1d494c118603dd-4" vertex="1">
                    <mxGeometry x="105" y="40" width="40" height="40" as="geometry"/>
                </mxCell>
                <mxCell id="60571a20871a0731-8" value="Menekan tombol Sign In" style="rounded=1;whiteSpace=wrap;html=1;shadow=0;comic=0;labelBackgroundColor=none;strokeWidth=1;fontFamily=Verdana;fontSize=12;align=center;arcSize=50;" parent="1c1d494c118603dd-4" vertex="1">
                    <mxGeometry x="60" y="110" width="130" height="30" as="geometry"/>
                </mxCell>
                <mxCell id="6Mff6yjk0ZhraDcIMbtA-32" value="Memilih role 'cashier' dan mengisi data kredensial akun" style="whiteSpace=wrap;html=1;fontFamily=Verdana;rounded=1;shadow=0;comic=0;labelBackgroundColor=none;strokeWidth=1;arcSize=50;" parent="1c1d494c118603dd-4" vertex="1">
                    <mxGeometry x="40" y="180" width="170" height="60" as="geometry"/>
                </mxCell>
                <mxCell id="6Mff6yjk0ZhraDcIMbtA-31" value="" style="edgeStyle=orthogonalEdgeStyle;rounded=0;orthogonalLoop=1;jettySize=auto;html=1;" parent="1c1d494c118603dd-1" source="60571a20871a0731-8" target="6Mff6yjk0ZhraDcIMbtA-30" edge="1">
                    <mxGeometry relative="1" as="geometry"/>
                </mxCell>
                <mxCell id="6Mff6yjk0ZhraDcIMbtA-33" value="" style="edgeStyle=orthogonalEdgeStyle;rounded=0;orthogonalLoop=1;jettySize=auto;html=1;" parent="1c1d494c118603dd-1" source="6Mff6yjk0ZhraDcIMbtA-30" target="6Mff6yjk0ZhraDcIMbtA-32" edge="1">
                    <mxGeometry relative="1" as="geometry">
                        <Array as="points">
                            <mxPoint x="125" y="230"/>
                        </Array>
                    </mxGeometry>
                </mxCell>
                <mxCell id="6Mff6yjk0ZhraDcIMbtA-38" style="edgeStyle=orthogonalEdgeStyle;rounded=0;orthogonalLoop=1;jettySize=auto;html=1;entryX=1;entryY=0.5;entryDx=0;entryDy=0;" parent="1c1d494c118603dd-1" source="6Mff6yjk0ZhraDcIMbtA-32" target="6Mff6yjk0ZhraDcIMbtA-37" edge="1">
                    <mxGeometry relative="1" as="geometry">
                        <Array as="points">
                            <mxPoint x="370" y="290"/>
                        </Array>
                    </mxGeometry>
                </mxCell>
            </root>
        </mxGraphModel>
    </diagram>
    <diagram id="zTCo1aMTUq75-nscngZb" name="Employees Create Transaction">
        <mxGraphModel dx="1074" dy="903" grid="1" gridSize="10" guides="1" tooltips="1" connect="1" arrows="1" fold="1" page="1" pageScale="1" pageWidth="850" pageHeight="1100" math="0" shadow="0">
            <root>
                <mxCell id="0"/>
                <mxCell id="1" parent="0"/>
                <mxCell id="6Lt8JwYy9Frsuj0RPYuV-1" value="Kasir Create Transactions" style="swimlane;html=1;childLayout=stackLayout;startSize=20;rounded=0;shadow=0;comic=0;labelBackgroundColor=none;strokeWidth=1;fontFamily=Verdana;fontSize=12;align=center;" parent="1" vertex="1">
                    <mxGeometry x="50" y="30" width="750" height="760" as="geometry">
                        <mxRectangle x="40" y="20" width="100" height="30" as="alternateBounds"/>
                    </mxGeometry>
                </mxCell>
                <mxCell id="6Lt8JwYy9Frsuj0RPYuV-2" value="Pembeli" style="swimlane;html=1;startSize=20;" parent="6Lt8JwYy9Frsuj0RPYuV-1" vertex="1">
                    <mxGeometry y="20" width="250" height="740" as="geometry">
                        <mxRectangle y="20" width="40" height="970" as="alternateBounds"/>
                    </mxGeometry>
                </mxCell>
                <mxCell id="6Lt8JwYy9Frsuj0RPYuV-3" value="Membeli barang" style="rounded=1;whiteSpace=wrap;html=1;shadow=0;comic=0;labelBackgroundColor=none;strokeWidth=1;fontFamily=Verdana;fontSize=12;align=center;arcSize=50;" parent="6Lt8JwYy9Frsuj0RPYuV-2" vertex="1">
                    <mxGeometry x="53.75" y="130" width="142.5" height="30" as="geometry"/>
                </mxCell>
                <mxCell id="6Lt8JwYy9Frsuj0RPYuV-4" value="Membayar" style="rounded=1;whiteSpace=wrap;html=1;shadow=0;comic=0;labelBackgroundColor=none;strokeWidth=1;fontFamily=Verdana;fontSize=12;align=center;arcSize=50;" parent="6Lt8JwYy9Frsuj0RPYuV-2" vertex="1">
                    <mxGeometry x="53.75" y="280" width="142.5" height="30" as="geometry"/>
                </mxCell>
                <mxCell id="6Lt8JwYy9Frsuj0RPYuV-5" value="Sistem" style="swimlane;html=1;startSize=20;" parent="6Lt8JwYy9Frsuj0RPYuV-1" vertex="1">
                    <mxGeometry x="250" y="20" width="250" height="740" as="geometry"/>
                </mxCell>
                <mxCell id="6Lt8JwYy9Frsuj0RPYuV-6" value="" style="ellipse;whiteSpace=wrap;html=1;rounded=0;shadow=0;comic=0;labelBackgroundColor=none;strokeWidth=1;fillColor=#000000;fontFamily=Verdana;fontSize=12;align=center;" parent="6Lt8JwYy9Frsuj0RPYuV-5" vertex="1">
                    <mxGeometry x="105" y="50" width="40" height="40" as="geometry"/>
                </mxCell>
                <mxCell id="6Lt8JwYy9Frsuj0RPYuV-7" value="Menampilkan list barang dan keranjang kosong" style="rounded=1;whiteSpace=wrap;html=1;shadow=0;comic=0;labelBackgroundColor=none;strokeWidth=1;fontFamily=Verdana;fontSize=12;align=center;arcSize=50;" parent="6Lt8JwYy9Frsuj0RPYuV-5" vertex="1">
                    <mxGeometry x="44" y="115" width="162.5" height="60" as="geometry"/>
                </mxCell>
                <mxCell id="6Lt8JwYy9Frsuj0RPYuV-8" value="Menampilkan list barang dan update keranjang" style="rounded=1;whiteSpace=wrap;html=1;shadow=0;comic=0;labelBackgroundColor=none;strokeWidth=1;fontFamily=Verdana;fontSize=12;align=center;arcSize=50;" parent="6Lt8JwYy9Frsuj0RPYuV-5" vertex="1">
                    <mxGeometry x="54" y="265" width="142.5" height="60" as="geometry"/>
                </mxCell>
                <mxCell id="6Lt8JwYy9Frsuj0RPYuV-9" value="Menampilkan list barang dan keranjang kosong" style="rounded=1;whiteSpace=wrap;html=1;shadow=0;comic=0;labelBackgroundColor=none;strokeWidth=1;fontFamily=Verdana;fontSize=12;align=center;arcSize=50;" parent="6Lt8JwYy9Frsuj0RPYuV-5" vertex="1">
                    <mxGeometry x="40" y="570" width="170" height="60" as="geometry"/>
                </mxCell>
                <mxCell id="6Lt8JwYy9Frsuj0RPYuV-10" value="" style="shape=mxgraph.bpmn.shape;html=1;verticalLabelPosition=bottom;labelBackgroundColor=#ffffff;verticalAlign=top;perimeter=ellipsePerimeter;outline=end;symbol=terminate;rounded=0;shadow=0;comic=0;strokeWidth=1;fontFamily=Verdana;fontSize=12;align=center;" parent="6Lt8JwYy9Frsuj0RPYuV-5" vertex="1">
                    <mxGeometry x="105" y="675" width="40" height="40" as="geometry"/>
                </mxCell>
                <mxCell id="6Lt8JwYy9Frsuj0RPYuV-11" style="edgeStyle=orthogonalEdgeStyle;rounded=0;orthogonalLoop=1;jettySize=auto;html=1;entryX=0.5;entryY=0;entryDx=0;entryDy=0;" parent="6Lt8JwYy9Frsuj0RPYuV-5" source="6Lt8JwYy9Frsuj0RPYuV-9" target="6Lt8JwYy9Frsuj0RPYuV-10" edge="1">
                    <mxGeometry relative="1" as="geometry">
                        <Array as="points"/>
                    </mxGeometry>
                </mxCell>
                <mxCell id="6Lt8JwYy9Frsuj0RPYuV-12" style="edgeStyle=orthogonalEdgeStyle;rounded=0;html=1;labelBackgroundColor=none;startArrow=none;startFill=0;startSize=5;endArrow=classicThin;endFill=1;endSize=5;jettySize=auto;orthogonalLoop=1;strokeWidth=1;fontFamily=Verdana;fontSize=12;exitX=1;exitY=0.5;exitDx=0;exitDy=0;" parent="6Lt8JwYy9Frsuj0RPYuV-1" source="6Lt8JwYy9Frsuj0RPYuV-6" target="6Lt8JwYy9Frsuj0RPYuV-21" edge="1">
                    <mxGeometry relative="1" as="geometry">
                        <Array as="points">
                            <mxPoint x="395" y="90"/>
                        </Array>
                        <mxPoint x="400" y="25" as="sourcePoint"/>
                    </mxGeometry>
                </mxCell>
                <mxCell id="6Lt8JwYy9Frsuj0RPYuV-13" style="edgeStyle=orthogonalEdgeStyle;rounded=0;orthogonalLoop=1;jettySize=auto;html=1;entryX=1;entryY=0.5;entryDx=0;entryDy=0;" parent="6Lt8JwYy9Frsuj0RPYuV-1" source="6Lt8JwYy9Frsuj0RPYuV-21" target="6Lt8JwYy9Frsuj0RPYuV-7" edge="1">
                    <mxGeometry relative="1" as="geometry">
                        <Array as="points">
                            <mxPoint x="620" y="165"/>
                        </Array>
                    </mxGeometry>
                </mxCell>
                <mxCell id="6Lt8JwYy9Frsuj0RPYuV-14" value="" style="edgeStyle=orthogonalEdgeStyle;rounded=0;orthogonalLoop=1;jettySize=auto;html=1;" parent="6Lt8JwYy9Frsuj0RPYuV-1" source="6Lt8JwYy9Frsuj0RPYuV-7" target="6Lt8JwYy9Frsuj0RPYuV-3" edge="1">
                    <mxGeometry relative="1" as="geometry"/>
                </mxCell>
                <mxCell id="6Lt8JwYy9Frsuj0RPYuV-15" style="edgeStyle=orthogonalEdgeStyle;rounded=0;orthogonalLoop=1;jettySize=auto;html=1;entryX=0;entryY=0.5;entryDx=0;entryDy=0;" parent="6Lt8JwYy9Frsuj0RPYuV-1" source="6Lt8JwYy9Frsuj0RPYuV-3" target="6Lt8JwYy9Frsuj0RPYuV-22" edge="1">
                    <mxGeometry relative="1" as="geometry">
                        <Array as="points">
                            <mxPoint x="121" y="245"/>
                        </Array>
                    </mxGeometry>
                </mxCell>
                <mxCell id="6Lt8JwYy9Frsuj0RPYuV-16" style="edgeStyle=orthogonalEdgeStyle;rounded=0;orthogonalLoop=1;jettySize=auto;html=1;entryX=1;entryY=0.5;entryDx=0;entryDy=0;" parent="6Lt8JwYy9Frsuj0RPYuV-1" source="6Lt8JwYy9Frsuj0RPYuV-22" target="6Lt8JwYy9Frsuj0RPYuV-8" edge="1">
                    <mxGeometry relative="1" as="geometry">
                        <Array as="points">
                            <mxPoint x="620" y="315"/>
                        </Array>
                    </mxGeometry>
                </mxCell>
                <mxCell id="6Lt8JwYy9Frsuj0RPYuV-17" value="" style="edgeStyle=orthogonalEdgeStyle;rounded=0;orthogonalLoop=1;jettySize=auto;html=1;" parent="6Lt8JwYy9Frsuj0RPYuV-1" source="6Lt8JwYy9Frsuj0RPYuV-8" target="6Lt8JwYy9Frsuj0RPYuV-4" edge="1">
                    <mxGeometry relative="1" as="geometry"/>
                </mxCell>
                <mxCell id="6Lt8JwYy9Frsuj0RPYuV-18" style="edgeStyle=orthogonalEdgeStyle;rounded=0;orthogonalLoop=1;jettySize=auto;html=1;entryX=0;entryY=0.5;entryDx=0;entryDy=0;" parent="6Lt8JwYy9Frsuj0RPYuV-1" source="6Lt8JwYy9Frsuj0RPYuV-4" target="6Lt8JwYy9Frsuj0RPYuV-24" edge="1">
                    <mxGeometry relative="1" as="geometry">
                        <Array as="points">
                            <mxPoint x="125" y="380"/>
                        </Array>
                    </mxGeometry>
                </mxCell>
                <mxCell id="6Lt8JwYy9Frsuj0RPYuV-19" value="" style="edgeStyle=orthogonalEdgeStyle;rounded=0;orthogonalLoop=1;jettySize=auto;html=1;" parent="6Lt8JwYy9Frsuj0RPYuV-1" source="6Lt8JwYy9Frsuj0RPYuV-29" target="6Lt8JwYy9Frsuj0RPYuV-9" edge="1">
                    <mxGeometry relative="1" as="geometry"/>
                </mxCell>
                <mxCell id="6Lt8JwYy9Frsuj0RPYuV-20" value="Kasir" style="swimlane;html=1;startSize=20;" parent="6Lt8JwYy9Frsuj0RPYuV-1" vertex="1">
                    <mxGeometry x="500" y="20" width="250" height="740" as="geometry"/>
                </mxCell>
                <mxCell id="6Lt8JwYy9Frsuj0RPYuV-21" value="Menekan Menu Cashier" style="rounded=1;whiteSpace=wrap;html=1;shadow=0;comic=0;labelBackgroundColor=none;strokeWidth=1;fontFamily=Verdana;fontSize=12;align=center;arcSize=50;" parent="6Lt8JwYy9Frsuj0RPYuV-20" vertex="1">
                    <mxGeometry x="60" y="55" width="120" height="30" as="geometry"/>
                </mxCell>
                <mxCell id="6Lt8JwYy9Frsuj0RPYuV-22" value="Menambah barang ke keranjang" style="rounded=1;whiteSpace=wrap;html=1;shadow=0;comic=0;labelBackgroundColor=none;strokeWidth=1;fontFamily=Verdana;fontSize=12;align=center;arcSize=50;" parent="6Lt8JwYy9Frsuj0RPYuV-20" vertex="1">
                    <mxGeometry x="40" y="200" width="160" height="50" as="geometry"/>
                </mxCell>
                <mxCell id="6Lt8JwYy9Frsuj0RPYuV-23" value="" style="edgeStyle=orthogonalEdgeStyle;rounded=0;orthogonalLoop=1;jettySize=auto;html=1;entryX=0.5;entryY=0;entryDx=0;entryDy=0;" parent="6Lt8JwYy9Frsuj0RPYuV-20" source="6Lt8JwYy9Frsuj0RPYuV-24" target="6Lt8JwYy9Frsuj0RPYuV-26" edge="1">
                    <mxGeometry relative="1" as="geometry"/>
                </mxCell>
                <mxCell id="6Lt8JwYy9Frsuj0RPYuV-24" value="Menekan tombol checkout" style="rounded=1;whiteSpace=wrap;html=1;shadow=0;comic=0;labelBackgroundColor=none;strokeWidth=1;fontFamily=Verdana;fontSize=12;align=center;arcSize=50;" parent="6Lt8JwYy9Frsuj0RPYuV-20" vertex="1">
                    <mxGeometry x="48.75" y="335" width="142.5" height="50" as="geometry"/>
                </mxCell>
                <mxCell id="6Lt8JwYy9Frsuj0RPYuV-25" value="" style="edgeStyle=orthogonalEdgeStyle;rounded=0;orthogonalLoop=1;jettySize=auto;html=1;entryX=0.5;entryY=0;entryDx=0;entryDy=0;" parent="6Lt8JwYy9Frsuj0RPYuV-20" source="6Lt8JwYy9Frsuj0RPYuV-26" target="6Lt8JwYy9Frsuj0RPYuV-28" edge="1">
                    <mxGeometry relative="1" as="geometry"/>
                </mxCell>
                <mxCell id="6Lt8JwYy9Frsuj0RPYuV-26" value="Input total yang dibayar" style="rounded=1;whiteSpace=wrap;html=1;shadow=0;comic=0;labelBackgroundColor=none;strokeWidth=1;fontFamily=Verdana;fontSize=12;align=center;arcSize=50;" parent="6Lt8JwYy9Frsuj0RPYuV-20" vertex="1">
                    <mxGeometry x="48.75" y="415" width="142.5" height="50" as="geometry"/>
                </mxCell>
                <mxCell id="6Lt8JwYy9Frsuj0RPYuV-27" value="" style="edgeStyle=orthogonalEdgeStyle;rounded=0;orthogonalLoop=1;jettySize=auto;html=1;" parent="6Lt8JwYy9Frsuj0RPYuV-20" source="6Lt8JwYy9Frsuj0RPYuV-28" target="6Lt8JwYy9Frsuj0RPYuV-29" edge="1">
                    <mxGeometry relative="1" as="geometry"/>
                </mxCell>
                <mxCell id="6Lt8JwYy9Frsuj0RPYuV-28" value="Menulis note (opsional)" style="rounded=1;whiteSpace=wrap;html=1;shadow=0;comic=0;labelBackgroundColor=none;strokeWidth=1;fontFamily=Verdana;fontSize=12;align=center;arcSize=50;" parent="6Lt8JwYy9Frsuj0RPYuV-20" vertex="1">
                    <mxGeometry x="48.75" y="495" width="142.5" height="50" as="geometry"/>
                </mxCell>
                <mxCell id="6Lt8JwYy9Frsuj0RPYuV-29" value="Menekan tombol konfirmasi checkout" style="rounded=1;whiteSpace=wrap;html=1;shadow=0;comic=0;labelBackgroundColor=none;strokeWidth=1;fontFamily=Verdana;fontSize=12;align=center;arcSize=50;" parent="6Lt8JwYy9Frsuj0RPYuV-20" vertex="1">
                    <mxGeometry x="48.75" y="575" width="142.5" height="50" as="geometry"/>
                </mxCell>
            </root>
        </mxGraphModel>
    </diagram>
    <diagram id="Gsj3uLGykZihh09_uGLT" name="Kasir Read Transaksi">
        <mxGraphModel dx="1074" dy="903" grid="1" gridSize="10" guides="1" tooltips="1" connect="1" arrows="1" fold="1" page="1" pageScale="1" pageWidth="850" pageHeight="1100" math="0" shadow="0">
            <root>
                <mxCell id="0"/>
                <mxCell id="1" parent="0"/>
                <mxCell id="NauFnWxMoNdgYz6CHJ-D-1" value="Kasir Read Transactions" style="swimlane;html=1;childLayout=stackLayout;startSize=20;rounded=0;shadow=0;comic=0;labelBackgroundColor=none;strokeWidth=1;fontFamily=Verdana;fontSize=12;align=center;" parent="1" vertex="1">
                    <mxGeometry x="50" y="30" width="500" height="480" as="geometry">
                        <mxRectangle x="40" y="20" width="100" height="30" as="alternateBounds"/>
                    </mxGeometry>
                </mxCell>
                <mxCell id="NauFnWxMoNdgYz6CHJ-D-5" value="Sistem" style="swimlane;html=1;startSize=20;" parent="NauFnWxMoNdgYz6CHJ-D-1" vertex="1">
                    <mxGeometry y="20" width="250" height="460" as="geometry"/>
                </mxCell>
                <mxCell id="p_I0wy_OgOh7GojcpR_K-1" value="Menampilkan daftar transaksi yang dilakukan oleh akun kasir yang login" style="whiteSpace=wrap;html=1;fontFamily=Verdana;rounded=1;shadow=0;comic=0;labelBackgroundColor=none;strokeWidth=1;arcSize=50;" parent="NauFnWxMoNdgYz6CHJ-D-5" vertex="1">
                    <mxGeometry x="20" y="95" width="210" height="60" as="geometry"/>
                </mxCell>
                <mxCell id="p_I0wy_OgOh7GojcpR_K-5" value="Menampilkan detail transaksi yang dipilih" style="whiteSpace=wrap;html=1;fontFamily=Verdana;rounded=1;shadow=0;comic=0;labelBackgroundColor=none;strokeWidth=1;arcSize=50;" parent="NauFnWxMoNdgYz6CHJ-D-5" vertex="1">
                    <mxGeometry x="40" y="240" width="170" height="40" as="geometry"/>
                </mxCell>
                <mxCell id="NauFnWxMoNdgYz6CHJ-D-16" style="edgeStyle=orthogonalEdgeStyle;rounded=0;orthogonalLoop=1;jettySize=auto;html=1;entryX=1;entryY=0.5;entryDx=0;entryDy=0;" parent="NauFnWxMoNdgYz6CHJ-D-1" edge="1">
                    <mxGeometry relative="1" as="geometry">
                        <Array as="points">
                            <mxPoint x="620" y="315"/>
                        </Array>
                        <mxPoint x="190" y="315" as="targetPoint"/>
                    </mxGeometry>
                </mxCell>
                <mxCell id="NauFnWxMoNdgYz6CHJ-D-20" value="Kasir" style="swimlane;html=1;startSize=20;" parent="NauFnWxMoNdgYz6CHJ-D-1" vertex="1">
                    <mxGeometry x="250" y="20" width="250" height="460" as="geometry"/>
                </mxCell>
                <mxCell id="NauFnWxMoNdgYz6CHJ-D-6" value="" style="ellipse;whiteSpace=wrap;html=1;rounded=0;shadow=0;comic=0;labelBackgroundColor=none;strokeWidth=1;fillColor=#000000;fontFamily=Verdana;fontSize=12;align=center;" parent="NauFnWxMoNdgYz6CHJ-D-20" vertex="1">
                    <mxGeometry x="105" y="40" width="40" height="40" as="geometry"/>
                </mxCell>
                <mxCell id="NauFnWxMoNdgYz6CHJ-D-21" value="Menekan menu Transactions" style="rounded=1;whiteSpace=wrap;html=1;shadow=0;comic=0;labelBackgroundColor=none;strokeWidth=1;fontFamily=Verdana;fontSize=12;align=center;arcSize=50;" parent="NauFnWxMoNdgYz6CHJ-D-20" vertex="1">
                    <mxGeometry x="60" y="110" width="130" height="30" as="geometry"/>
                </mxCell>
                <mxCell id="NauFnWxMoNdgYz6CHJ-D-12" style="edgeStyle=orthogonalEdgeStyle;rounded=0;html=1;labelBackgroundColor=none;startArrow=none;startFill=0;startSize=5;endArrow=classicThin;endFill=1;endSize=5;jettySize=auto;orthogonalLoop=1;strokeWidth=1;fontFamily=Verdana;fontSize=12;exitX=0.5;exitY=1;exitDx=0;exitDy=0;" parent="NauFnWxMoNdgYz6CHJ-D-20" source="NauFnWxMoNdgYz6CHJ-D-6" target="NauFnWxMoNdgYz6CHJ-D-21" edge="1">
                    <mxGeometry relative="1" as="geometry">
                        <Array as="points"/>
                        <mxPoint x="400" y="-5" as="sourcePoint"/>
                    </mxGeometry>
                </mxCell>
                <mxCell id="p_I0wy_OgOh7GojcpR_K-3" value="Menekan details pada salah satu transaksi" style="rounded=1;whiteSpace=wrap;html=1;shadow=0;comic=0;labelBackgroundColor=none;strokeWidth=1;fontFamily=Verdana;fontSize=12;align=center;arcSize=50;" parent="NauFnWxMoNdgYz6CHJ-D-20" vertex="1">
                    <mxGeometry x="50" y="170" width="150" height="50" as="geometry"/>
                </mxCell>
                <mxCell id="p_I0wy_OgOh7GojcpR_K-9" value="" style="edgeStyle=orthogonalEdgeStyle;rounded=0;orthogonalLoop=1;jettySize=auto;html=1;" parent="NauFnWxMoNdgYz6CHJ-D-20" source="p_I0wy_OgOh7GojcpR_K-7" target="NauFnWxMoNdgYz6CHJ-D-10" edge="1">
                    <mxGeometry relative="1" as="geometry"/>
                </mxCell>
                <mxCell id="p_I0wy_OgOh7GojcpR_K-7" value="Melihat daftar transaksi dan detail transaksi yang dipilih" style="whiteSpace=wrap;html=1;fontFamily=Verdana;rounded=1;shadow=0;comic=0;labelBackgroundColor=none;strokeWidth=1;arcSize=50;" parent="NauFnWxMoNdgYz6CHJ-D-20" vertex="1">
                    <mxGeometry x="30" y="320" width="190" height="40" as="geometry"/>
                </mxCell>
                <mxCell id="NauFnWxMoNdgYz6CHJ-D-10" value="" style="shape=mxgraph.bpmn.shape;html=1;verticalLabelPosition=bottom;labelBackgroundColor=#ffffff;verticalAlign=top;perimeter=ellipsePerimeter;outline=end;symbol=terminate;rounded=0;shadow=0;comic=0;strokeWidth=1;fontFamily=Verdana;fontSize=12;align=center;" parent="NauFnWxMoNdgYz6CHJ-D-20" vertex="1">
                    <mxGeometry x="105" y="400" width="40" height="40" as="geometry"/>
                </mxCell>
                <mxCell id="p_I0wy_OgOh7GojcpR_K-2" value="" style="edgeStyle=orthogonalEdgeStyle;rounded=0;orthogonalLoop=1;jettySize=auto;html=1;" parent="NauFnWxMoNdgYz6CHJ-D-1" source="NauFnWxMoNdgYz6CHJ-D-21" target="p_I0wy_OgOh7GojcpR_K-1" edge="1">
                    <mxGeometry relative="1" as="geometry"/>
                </mxCell>
                <mxCell id="p_I0wy_OgOh7GojcpR_K-4" style="edgeStyle=orthogonalEdgeStyle;rounded=0;orthogonalLoop=1;jettySize=auto;html=1;entryX=0;entryY=0.5;entryDx=0;entryDy=0;" parent="NauFnWxMoNdgYz6CHJ-D-1" source="p_I0wy_OgOh7GojcpR_K-1" target="p_I0wy_OgOh7GojcpR_K-3" edge="1">
                    <mxGeometry relative="1" as="geometry">
                        <Array as="points">
                            <mxPoint x="125" y="215"/>
                        </Array>
                    </mxGeometry>
                </mxCell>
                <mxCell id="p_I0wy_OgOh7GojcpR_K-6" style="edgeStyle=orthogonalEdgeStyle;rounded=0;orthogonalLoop=1;jettySize=auto;html=1;entryX=1;entryY=0.5;entryDx=0;entryDy=0;" parent="NauFnWxMoNdgYz6CHJ-D-1" source="p_I0wy_OgOh7GojcpR_K-3" target="p_I0wy_OgOh7GojcpR_K-5" edge="1">
                    <mxGeometry relative="1" as="geometry">
                        <Array as="points">
                            <mxPoint x="375" y="280"/>
                        </Array>
                    </mxGeometry>
                </mxCell>
                <mxCell id="p_I0wy_OgOh7GojcpR_K-8" style="edgeStyle=orthogonalEdgeStyle;rounded=0;orthogonalLoop=1;jettySize=auto;html=1;entryX=0;entryY=0.5;entryDx=0;entryDy=0;" parent="NauFnWxMoNdgYz6CHJ-D-1" source="p_I0wy_OgOh7GojcpR_K-5" target="p_I0wy_OgOh7GojcpR_K-7" edge="1">
                    <mxGeometry relative="1" as="geometry">
                        <Array as="points">
                            <mxPoint x="125" y="360"/>
                        </Array>
                    </mxGeometry>
                </mxCell>
            </root>
        </mxGraphModel>
    </diagram>
</mxfile>